HIERARCHY
ROOT Hips
{
  OFFSET -1.8071 51.7326 -5.35696
  CHANNELS 6 Xposition Yposition Zposition Zrotation Xrotation Yrotation
  JOINT LeftUpLeg
  {
    OFFSET 8.91 -6.27 -2.145
    CHANNELS 3 Zrotation Xrotation Yrotation
    JOINT LeftUpLegRoll
    {
      OFFSET 0 -22.7323 0
      CHANNELS 3 Zrotation Xrotation Yrotation
      JOINT LeftLeg
      {
        OFFSET 0 -22.1464 0
        CHANNELS 3 Zrotation Xrotation Yrotation
        JOINT LeftLegRoll
        {
          OFFSET 0 -22.0919 0
          CHANNELS 3 Zrotation Xrotation Yrotation
          JOINT LeftFoot
          {
            OFFSET 0 -18.609 0
            CHANNELS 3 Zrotation Xrotation Yrotation
            JOINT LeftToeBase
            {
              OFFSET 0 -6.26232 12.9547
              CHANNELS 3 Zrotation Xrotation Yrotation
              End Site
              {
                OFFSET 0 0 5.96686
              }
            }
          }
        }
      }
    }
  }
  JOINT RightUpLeg
  {
    OFFSET -8.91 -6.27 -2.145
    CHANNELS 3 Zrotation Xrotation Yrotation
    JOINT RightUpLegRoll
    {
      OFFSET 0 -22.7323 0
      CHANNELS 3 Zrotation Xrotation Yrotation
      JOINT RightLeg
      {
        OFFSET 0 -22.1464 0
        CHANNELS 3 Zrotation Xrotation Yrotation
        JOINT RightLegRoll
        {
          OFFSET 0 -22.0919 0
          CHANNELS 3 Zrotation Xrotation Yrotation
          JOINT RightFoot
          {
            OFFSET 0 -18.609 0
            CHANNELS 3 Zrotation Xrotation Yrotation
            JOINT RightToeBase
            {
              OFFSET 0 -6.26232 12.9547
              CHANNELS 3 Zrotation Xrotation Yrotation
              End Site
              {
                OFFSET 0 0.000942417 5.96686
              }
            }
          }
        }
      }
    }
  }
  JOINT Spine
  {
    OFFSET 0 7.43174 -2.06162
    CHANNELS 3 Zrotation Xrotation Yrotation
    JOINT Spine1
    {
      OFFSET -1.68772e-005 12.1899 -1.41951
      CHANNELS 3 Zrotation Xrotation Yrotation
      JOINT Spine2
      {
        OFFSET 0 11.8846 -1.0903
        CHANNELS 3 Zrotation Xrotation Yrotation
        JOINT Spine3
        {
          OFFSET 1.84329e-005 10.5137 1.04001
          CHANNELS 3 Zrotation Xrotation Yrotation
          JOINT LeftShoulder
          {
            OFFSET 7 4.56855 2.0674
            CHANNELS 3 Zrotation Xrotation Yrotation
            JOINT LeftArm
            {
              OFFSET 10.7073 0 0
              CHANNELS 3 Zrotation Xrotation Yrotation
              JOINT LeftArmRoll
              {
                OFFSET 15.2612 0 0
                CHANNELS 3 Zrotation Xrotation Yrotation
                JOINT LeftForeArm
                {
                  OFFSET 12.0443 0 0
                  CHANNELS 3 Zrotation Xrotation Yrotation
                  JOINT LeftForeArmRoll
                  {
                    OFFSET 16.3277 0 0
                    CHANNELS 3 Zrotation Xrotation Yrotation
                    JOINT LeftHand
                    {
                      OFFSET 10.3694 0 0
                      CHANNELS 3 Zrotation Xrotation Yrotation
                      JOINT LeftHandThumb1
                      {
                        OFFSET 4.34876 -0.798502 4.28243
                        CHANNELS 3 Zrotation Xrotation Yrotation
                        JOINT LeftHandThumb2
                        {
                          OFFSET 2.51259 -0.536099 0.707454
                          CHANNELS 3 Zrotation Xrotation Yrotation
                          JOINT LeftHandThumb3
                          {
                            OFFSET 2.54314 0 0
                            CHANNELS 3 Zrotation Xrotation Yrotation
                            JOINT LeftHandThumb4
                            {
                              OFFSET 2.66675 0 0
                              CHANNELS 3 Zrotation Xrotation Yrotation
                              End Site
                              {
                                OFFSET 1 0 0
                              }
                            }
                          }
                        }
                      }
                      JOINT LeftHandIndex1
                      {
                        OFFSET 8.82198 0.199729 3.47167
                        CHANNELS 3 Zrotation Xrotation Yrotation
                        JOINT LeftHandIndex2
                        {
                          OFFSET 4.22532 0 -0.00026266
                          CHANNELS 3 Zrotation Xrotation Yrotation
                          JOINT LeftHandIndex3
                          {
                            OFFSET 2.65394 0 -0.000165163
                            CHANNELS 3 Zrotation Xrotation Yrotation
                            JOINT LeftHandIndex4
                            {
                              OFFSET 1.95822 0 -0.000122167
                              CHANNELS 3 Zrotation Xrotation Yrotation
                              End Site
                              {
                                OFFSET 1 0 0
                              }
                            }
                          }
                        }
                      }
                      JOINT LeftHandMiddle1
                      {
                        OFFSET 8.80988 0.50089 1.30468
                        CHANNELS 3 Zrotation Xrotation Yrotation
                        JOINT LeftHandMiddle2
                        {
                          OFFSET 4.86325 0 0
                          CHANNELS 3 Zrotation Xrotation Yrotation
                          JOINT LeftHandMiddle3
                          {
                            OFFSET 2.76524 0 0
                            CHANNELS 3 Zrotation Xrotation Yrotation
                            JOINT LeftHandMiddle4
                            {
                              OFFSET 2.00563 0 0
                              CHANNELS 3 Zrotation Xrotation Yrotation
                              End Site
                              {
                                OFFSET 1 0 0
                              }
                            }
                          }
                        }
                      }
                      JOINT LeftHandRing1
                      {
                        OFFSET 8.89376 0.37992 -0.793159
                        CHANNELS 3 Zrotation Xrotation Yrotation
                        JOINT LeftHandRing2
                        {
                          OFFSET 4.53776 0 -0.000282138
                          CHANNELS 3 Zrotation Xrotation Yrotation
                          JOINT LeftHandRing3
                          {
                            OFFSET 2.30453 0 -0.000143448
                            CHANNELS 3 Zrotation Xrotation Yrotation
                            JOINT LeftHandRing4
                            {
                              OFFSET 1.92335 0 -0.00012044
                              CHANNELS 3 Zrotation Xrotation Yrotation
                              End Site
                              {
                                OFFSET 1 0 0
                              }
                            }
                          }
                        }
                      }
                      JOINT LeftHandPinky1
                      {
                        OFFSET 8.88227 -0.313027 -2.49036
                        CHANNELS 3 Zrotation Xrotation Yrotation
                        JOINT LeftHandPinky2
                        {
                          OFFSET 3.0441 0 0
                          CHANNELS 3 Zrotation Xrotation Yrotation
                          JOINT LeftHandPinky3
                          {
                            OFFSET 1.9745 0 0
                            CHANNELS 3 Zrotation Xrotation Yrotation
                            JOINT LeftHandPinky4
                            {
                              OFFSET 1.66661 0 0
                              CHANNELS 3 Zrotation Xrotation Yrotation
                              End Site
                              {
                                OFFSET 1 0 0
                              }
                            }
                          }
                        }
                      }
                    }
                  }
                }
              }
            }
          }
          JOINT RightShoulder
          {
            OFFSET -7 4.56855 2.0673
            CHANNELS 3 Zrotation Xrotation Yrotation
            JOINT RightArm
            {
              OFFSET -10.7073 0 0
              CHANNELS 3 Zrotation Xrotation Yrotation
              JOINT RightArmRoll
              {
                OFFSET -15.2612 0 0
                CHANNELS 3 Zrotation Xrotation Yrotation
                JOINT RightForeArm
                {
                  OFFSET -12.0444 0 0
                  CHANNELS 3 Zrotation Xrotation Yrotation
                  JOINT RightForeArmRoll
                  {
                    OFFSET -16.3276 0 0
                    CHANNELS 3 Zrotation Xrotation Yrotation
                    JOINT RightHand
                    {
                      OFFSET -10.3694 0 0
                      CHANNELS 3 Zrotation Xrotation Yrotation
                      JOINT RightHandThumb1
                      {
                        OFFSET -4.34838 -0.798501 4.28282
                        CHANNELS 3 Zrotation Xrotation Yrotation
                        JOINT RightHandThumb2
                        {
                          OFFSET -2.51253 -0.536099 0.707679
                          CHANNELS 3 Zrotation Xrotation Yrotation
                          JOINT RightHandThumb3
                          {
                            OFFSET -2.54159 0 0.0888232
                            CHANNELS 3 Zrotation Xrotation Yrotation
                            JOINT RightHandThumb4
                            {
                              OFFSET -2.66512 0 0.0931403
                              CHANNELS 3 Zrotation Xrotation Yrotation
                              End Site
                              {
                                OFFSET 1 0 0
                              }
                            }
                          }
                        }
                      }
                      JOINT RightHandIndex1
                      {
                        OFFSET -8.82167 0.199732 3.47246
                        CHANNELS 3 Zrotation Xrotation Yrotation
                        JOINT RightHandIndex2
                        {
                          OFFSET -4.22532 0 0.000114599
                          CHANNELS 3 Zrotation Xrotation Yrotation
                          JOINT RightHandIndex3
                          {
                            OFFSET -2.65394 0 7.19639e-005
                            CHANNELS 3 Zrotation Xrotation Yrotation
                            JOINT RightHandIndex4
                            {
                              OFFSET -1.95822 0 5.30975e-005
                              CHANNELS 3 Zrotation Xrotation Yrotation
                              End Site
                              {
                                OFFSET 1 0 0
                              }
                            }
                          }
                        }
                      }
                      JOINT RightHandMiddle1
                      {
                        OFFSET -8.80976 0.500893 1.30547
                        CHANNELS 3 Zrotation Xrotation Yrotation
                        JOINT RightHandMiddle2
                        {
                          OFFSET -4.86325 0 0.000131881
                          CHANNELS 3 Zrotation Xrotation Yrotation
                          JOINT RightHandMiddle3
                          {
                            OFFSET -2.76524 0 7.49839e-005
                            CHANNELS 3 Zrotation Xrotation Yrotation
                            JOINT RightHandMiddle4
                            {
                              OFFSET -2.00563 0 5.4389e-005
                              CHANNELS 3 Zrotation Xrotation Yrotation
                              End Site
                              {
                                OFFSET 1 0 0
                              }
                            }
                          }
                        }
                      }
                      JOINT RightHandRing1
                      {
                        OFFSET -8.89383 0.379922 -0.792364
                        CHANNELS 3 Zrotation Xrotation Yrotation
                        JOINT RightHandRing2
                        {
                          OFFSET -4.53776 0 0.000123052
                          CHANNELS 3 Zrotation Xrotation Yrotation
                          JOINT RightHandRing3
                          {
                            OFFSET -2.30453 0 6.2493e-005
                            CHANNELS 3 Zrotation Xrotation Yrotation
                            JOINT RightHandRing4
                            {
                              OFFSET -1.92335 0 5.2155e-005
                              CHANNELS 3 Zrotation Xrotation Yrotation
                              End Site
                              {
                                OFFSET 1 0 0
                              }
                            }
                          }
                        }
                      }
                      JOINT RightHandPinky1
                      {
                        OFFSET -8.8825 -0.313025 -2.48956
                        CHANNELS 3 Zrotation Xrotation Yrotation
                        JOINT RightHandPinky2
                        {
                          OFFSET -3.0478 0 8.26486e-005
                          CHANNELS 3 Zrotation Xrotation Yrotation
                          JOINT RightHandPinky3
                          {
                            OFFSET -1.9769 0 5.36132e-005
                            CHANNELS 3 Zrotation Xrotation Yrotation
                            JOINT RightHandPinky4
                            {
                              OFFSET -1.66864 0 4.52455e-005
                              CHANNELS 3 Zrotation Xrotation Yrotation
                              End Site
                              {
                                OFFSET 1 0 0
                              }
                            }
                          }
                        }
                      }
                    }
                  }
                }
              }
            }
          }
          JOINT Neck
          {
            OFFSET 0 11.5156 1.94702
            CHANNELS 3 Zrotation Xrotation Yrotation
            JOINT Head
            {
              OFFSET -1.26215e-005 11.0733 1.65432
              CHANNELS 3 Zrotation Xrotation Yrotation
              End Site
              {
                OFFSET 0 17.7047 0
              }
            }
          }
        }
      }
    }
  }
}
MOTION
Frames:	4
Frame Time:	0.0416667
-1.8071 51.7326 -5.35696 1.56729 -36.0299 -2.02005 20.6357 -56.8172 18.6211 2.41237e-018 -1.30079e-016 2.12491 180 82.8217 174.001 5.6732e-017 6.28363e-016 -10.318 9.74163 1.23314 -0.105095 -6.70827 -2.99923 -0.352602 -5.47956 -59.3602 0.300076 2.63995e-017 -4.29575e-016 7.03337 -180 85.3038 -174.361 5.94227e-017 -6.42967e-016 10.5605 6.94442 0.163748 -0.0142818 1.89787 -1.28064 0.0424321 -2.41973 3.46648 0.911388 -1.67492 5.82457 2.0809 -1.7066 5.79446 2.14743 -1.73891 5.76251 2.21023 -8.23707 0 0.394134 -53.5813 0.093167 -13.4128 -0 16.469 0 14.4147 7.75498 -62.3012 -0 24.4718 0 0.135378 -0.000836022 -4.16279 0.000195472 8.40631e-005 0.000356315 -9.8301 -0.341589 1.97063 0.000462395 0 0 -0 0 0 -0.000321162 -1.12152e-005 -6.67575e-006 -0.000633089 0 0 -1.20577e-006 0 0 -0 0 0 5.81416e-005 2.03035e-006 1.99643 -0.000214957 0 0 1.37716e-007 0 0 -0 0 0 -9.61885e-006 -3.35898e-007 1.99643 -2.17512e-005 0 0 -2.48382e-007 0 0 -0 0 0 0.00080418 2.80826e-005 2 -6.40967e-005 0 0 -3.95262e-005 0 0 -0 0 0 11.055 -7.47137e-016 -5.28932 54.0129 -1.18193 -0.807171 2.29747e-015 18.1304 -3.66564e-016 -5.98322 2.35576 68.5857 -7.01543e-006 9.40038 -2.74565e-006 -5.49706 -0.53412 10.9947 0.000319069 -2.86046e-005 0.000130125 10.4896 -0.364257 -1.96656 0.00019947 0 -0 0 0 -0 4.88071e-006 -1.70438e-007 4.76837e-007 0.000632018 0 -0 1.68126e-006 0 -0 0 0 -0 -6.47449e-005 2.26094e-006 2.3842e-007 0.000206983 0 -0 1.44978e-005 0 -0 0 0 -0 3.86015e-006 -1.34799e-007 4.37326e-015 3.13304e-006 0 -0 -1.99814e-006 0 -0 0 0 -0 0.00119085 -4.15854e-005 4.77269e-007 9.31088e-005 0 -0 2.97724e-005 0 -0 0 0 -0 10.3809 10.3253 -5.38313 -2.58328 -6.73564 -0.945793 
-1.82712 51.7326 -5.3748 1.50942 -36.2266 -2.28626 20.9732 -56.5072 18.9086 2.51727e-018 -1.32878e-016 2.17065 180 82.8014 173.986 5.69565e-017 6.29598e-016 -10.3385 9.75029 1.23079 -0.104986 -6.59204 -2.93061 -0.338485 -4.87284 -59.1846 0.879859 2.70721e-017 -4.3499e-016 7.1225 -180 85.3322 -174.389 5.89377e-017 -6.4036e-016 10.5172 7.01296 0.184836 -0.0156704 1.89787 -1.28064 0.0424321 -2.44998 3.48922 0.947361 -1.68211 5.86275 2.14513 -1.707 5.83108 2.21385 -1.74041 5.79753 2.27875 -8.20356 0 0.383854 -53.6578 0.0987845 -13.5459 -0 16.4218 0 14.3941 7.79367 -62.1491 -0 24.4562 0 0.113501 -0.000836044 -4.14209 0.000195472 8.40631e-005 0.000356315 -9.8301 -0.341589 1.97063 0.000462395 0 0 -0 0 0 -0.000321162 -1.12152e-005 -6.67575e-006 -0.000633089 0 0 -1.20577e-006 0 0 -0 0 0 5.81416e-005 2.03035e-006 1.99643 -0.000214957 0 0 1.37716e-007 0 0 -0 0 0 -9.61885e-006 -3.35898e-007 1.99643 -2.17512e-005 0 0 -2.48382e-007 0 0 -0 0 0 0.00080418 2.80826e-005 2 -6.40967e-005 0 0 -3.95262e-005 0 0 -0 0 0 11.0158 -7.38846e-016 -5.22274 54.0109 -1.2038 -0.864931 2.2976e-015 18.1314 -3.66605e-016 -5.96452 2.34843 68.5849 -7.01683e-006 9.37167 -2.74542e-006 -5.52205 -0.534071 10.9912 0.000319069 -2.86046e-005 0.000130125 10.4896 -0.364257 -1.96656 0.00019947 0 -0 0 0 -0 4.88071e-006 -1.70438e-007 4.76837e-007 0.000632018 0 -0 1.68126e-006 0 -0 0 0 -0 -6.47449e-005 2.26094e-006 2.3842e-007 0.000206983 0 -0 1.44978e-005 0 -0 0 0 -0 3.86015e-006 -1.34799e-007 4.37326e-015 3.13304e-006 0 -0 -1.99814e-006 0 -0 0 0 -0 0.00119085 -4.15854e-005 4.77269e-007 9.31088e-005 0 -0 2.97724e-005 0 -0 0 0 -0 10.2087 10.4272 -5.22306 -2.63604 -6.76589 -0.932279 
-1.82933 51.7326 -5.37384 1.52414 -36.2626 -2.36997 21.0677 -56.4149 19.0116 2.62972e-018 -1.3581e-016 2.21857 180 82.8021 173.942 5.76812e-017 6.33553e-016 -10.4041 9.73462 1.1991 -0.102071 -6.73341 -2.93169 -0.346189 -4.77049 -59.1707 0.983593 2.72768e-017 -4.36627e-016 7.14943 -180 85.3304 -174.375 5.90216e-017 -6.40812e-016 10.5247 6.99675 0.198729 -0.0164948 1.89787 -1.28064 0.0424321 -2.47486 3.48379 0.959912 -1.69509 5.85385 2.17158 -1.72075 5.82137 2.24115 -1.75456 5.78697 2.30683 -8.11013 0 0.309941 -53.7571 0.0718664 -13.466 -0 16.3827 0 14.3916 7.79862 -62.1299 -0 24.4431 0 0.0970172 -0.000836052 -4.13467 0.000195472 8.40631e-005 0.000356315 -9.8301 -0.341589 1.97063 0.000462395 0 0 -0 0 0 -0.000321162 -1.12152e-005 -6.67575e-006 -0.000633089 0 0 -1.20577e-006 0 0 -0 0 0 5.81416e-005 2.03035e-006 1.99643 -0.000214957 0 0 1.37716e-007 0 0 -0 0 0 -9.61885e-006 -3.35898e-007 1.99643 -2.17512e-005 0 0 -2.48382e-007 0 0 -0 0 0 0.00080418 2.80826e-005 2 -6.40967e-005 0 0 -3.95262e-005 0 0 -0 0 0 10.9967 -7.30031e-016 -5.14727 54.0268 -1.22844 -0.961595 2.29843e-015 18.1376 -3.66865e-016 -5.93691 2.33758 68.584 -7.01891e-006 9.32865 -2.74508e-006 -5.56941 -0.53526 10.975 0.000319069 -2.86046e-005 0.000130125 10.4896 -0.364257 -1.96656 0.00019947 0 -0 0 0 -0 4.88071e-006 -1.70438e-007 4.76837e-007 0.000632018 0 -0 1.68126e-006 0 -0 0 0 -0 -6.47449e-005 2.26094e-006 2.3842e-007 0.000206983 0 -0 1.44978e-005 0 -0 0 0 -0 3.86015e-006 -1.34799e-007 4.37326e-015 3.13304e-006 0 -0 -1.99814e-006 0 -0 0 0 -0 0.00119085 -4.15854e-005 4.77269e-007 9.31088e-005 0 -0 2.97724e-005 0 -0 0 0 -0 10.3748 10.5853 -5.28848 -2.69765 -6.87219 -0.918003 
-1.82398 51.7355 -5.36277 1.53029 -36.2562 -2.36569 21.0555 -56.4127 19.0034 2.63761e-018 -1.36014e-016 2.22191 -180 82.7918 173.982 5.70206e-017 6.29948e-016 -10.3443 9.76975 1.14976 -0.0982957 -6.77909 -3.20873 -0.381081 -4.83662 -59.1768 0.918671 2.71995e-017 -4.3601e-016 7.13928 -180 85.3203 -174.357 5.91445e-017 -6.41474e-016 10.5357 6.96966 0.191171 -0.0159883 1.89787 -1.28064 0.0424321 -2.48648 3.47176 0.958374 -1.7027 5.83359 2.17112 -1.72836 5.80092 2.24083 -1.76217 5.7663 2.30663 -7.99973 0 0.271904 -53.8811 0.0644426 -13.369 -0 16.3634 0 14.3917 7.7995 -62.1273 -0 24.4422 0 0.0953039 -0.000836055 -4.13125 0.000195472 8.40631e-005 0.000356315 -9.8301 -0.341589 1.97063 0.000462395 0 0 -0 0 0 -0.000321162 -1.12152e-005 -6.67575e-006 -0.000633089 0 0 -1.20577e-006 0 0 -0 0 0 5.81416e-005 2.03035e-006 1.99643 -0.000214957 0 0 1.37716e-007 0 0 -0 0 0 -9.61885e-006 -3.35898e-007 1.99643 -2.17512e-005 0 0 -2.48382e-007 0 0 -0 0 0 0.00080418 2.80826e-005 2 -6.40967e-005 0 0 -3.95262e-005 0 0 -0 0 0 10.9782 -7.24752e-016 -5.10362 54.0577 -1.24576 -1.05074 2.29977e-015 18.1475 -3.67283e-016 -5.9314 2.33453 68.5912 -7.01929e-006 9.32097 -2.74502e-006 -5.6019 -0.537522 10.9497 0.000319069 -2.86046e-005 0.000130125 10.4896 -0.364257 -1.96656 0.00019947 0 -0 0 0 -0 4.88071e-006 -1.70438e-007 4.76837e-007 0.000632018 0 -0 1.68126e-006 0 -0 0 0 -0 -6.47449e-005 2.26094e-006 2.3842e-007 0.000206983 0 -0 1.44978e-005 0 -0 0 0 -0 3.86015e-006 -1.34799e-007 4.37326e-015 3.13304e-006 0 -0 -1.99814e-006 0 -0 0 0 -0 0.00119085 -4.15854e-005 4.77269e-007 9.31088e-005 0 -0 2.97724e-005 0 -0 0 0 -0 10.6422 10.7014 -5.35404 -2.75891 -6.93356 -0.886763 
